<svg width="20" height="21" viewBox="0 0 20 21" fill="none" xmlns="http://www.w3.org/2000/svg">
<path d="M-7.46167e-07 3.48001L-1.28061e-07 17.5972C-5.74539e-08 19.2098 1.31439 20.522 2.92969 20.522L17.0703 20.522C18.6856 20.522 20 19.2098 20 17.5972L20 11.7085L12.9297 11.7085L12.9297 14.0484L9.41406 14.0484L9.41406 11.7085L7.03125 11.7085C5.09262 11.7085 3.51562 10.1341 3.51562 8.19873L3.51562 4.64994L7.03125 4.64994L7.03125 8.19873L9.41406 8.19873L9.41406 4.64994L12.9297 5.23491L12.9297 8.19873L20 8.19873L20 3.48001C20 1.86739 18.6856 0.555183 17.0703 0.555183L2.92969 0.555183C1.31439 0.555183 -8.16774e-07 1.8674 -7.46167e-07 3.48001Z" fill="white"/>
</svg>
