<svg width="19" height="21" viewBox="0 0 19 21" fill="none" xmlns="http://www.w3.org/2000/svg">
<path d="M-4.37114e-07 10.4224C-1.95608e-07 15.9383 4.36167 20.4059 9.74107 20.4059C14.0457 20.4059 17.6962 17.5456 18.9832 13.5797C19.0749 13.0805 18.7734 12.8975 18.5148 12.8975C18.2835 12.8975 17.6706 12.9058 16.8585 12.91C17.4459 15.687 15.5517 16.2727 15.5517 16.2727C14.4274 16.727 14.1267 17.3834 14.1267 17.3834C13.5228 18.2877 13.5352 17.3135 13.5352 17.3135C13.603 16.311 14.5389 15.7844 14.5389 15.7844C16.0283 14.8942 15.5979 13.4474 15.3493 12.8767C14.719 12.7868 14.2903 12.5298 14.0466 12.2444C13.8029 14.4616 12.9652 16.7919 9.23304 16.7919C8.16988 16.7919 7.30085 16.405 6.61933 15.7644C6.37316 15.8767 5.3827 16.2137 4.04116 15.677C4.04116 15.677 3.78012 14.8409 5.03988 12.9316C4.82345 12.1329 4.71606 11.2843 4.7111 10.4358C4.71606 9.58716 4.82345 8.73857 5.03988 7.9399C3.78012 6.04305 4.04116 5.20694 4.04116 5.20694C5.3827 4.67034 6.37316 5.00728 6.61933 5.10711C7.30085 4.47067 8.16988 4.08381 9.23304 4.08381C12.9752 4.08381 13.7987 6.41743 14.0383 8.63874C14.3307 8.28932 14.928 7.96486 15.8408 7.96486C17.1444 7.96486 18.1918 7.97734 18.5082 7.97734C18.7635 7.97734 19.0683 7.80263 18.9708 7.29098C17.692 3.29678 14.0391 0.439033 9.74107 0.439033C4.36167 0.439033 -6.7851e-07 4.90911 -4.37114e-07 10.4224Z" fill="white"/>
</svg>
