<svg width="20" height="21" viewBox="0 0 20 21" fill="none" xmlns="http://www.w3.org/2000/svg">
<path d="M-6.01032e-07 6.73674L-2.73196e-07 14.2243C-1.22337e-07 17.6698 2.79875 20.4639 6.25 20.4639L13.75 20.4639C17.2013 20.4639 20 17.6698 20 14.2243L20 6.73674C20 3.29122 17.2012 0.497108 13.75 0.497108L6.25 0.497108C2.79875 0.497108 -7.51891e-07 3.29122 -6.01032e-07 6.73674ZM13.75 2.369C16.1625 2.369 18.125 4.32824 18.125 6.73674L18.125 14.2243C18.125 16.6328 16.1625 18.592 13.75 18.592L6.25 18.592C3.8375 18.592 1.875 16.6328 1.875 14.2243L1.875 6.73674C1.875 4.32824 3.8375 2.369 6.25 2.369L13.75 2.369Z" fill="white"/>
<path d="M5 10.4796C5 13.2363 7.23875 15.4713 10 15.4713C12.7613 15.4713 15 13.2363 15 10.4796C15 7.72294 12.7612 5.48791 10 5.48791C7.23875 5.48791 5 7.72294 5 10.4796ZM13.125 10.4796C13.125 12.1993 11.7225 13.5994 10 13.5994C8.27625 13.5994 6.875 12.1993 6.875 10.4796C6.875 8.75997 8.27625 7.3598 10 7.3598C11.7225 7.3598 13.125 8.75997 13.125 10.4796Z" fill="white"/>
<path d="M5.29123 5.1137C5.29123 4.74596 4.99295 4.44784 4.62499 4.44784C4.25703 4.44784 3.95874 4.74596 3.95874 5.1137C3.95874 5.48145 4.25703 5.77956 4.62499 5.77956C4.99295 5.77956 5.29123 5.48145 5.29123 5.1137Z" fill="white"/>
</svg>
