<svg width="30" height="31" viewBox="0 0 30 31" fill="none" xmlns="http://www.w3.org/2000/svg">
<path d="M25.6055 0.825684L4.39453 0.825684C1.97159 0.825684 0 2.794 0 5.21292L0 26.3887C0 28.8076 1.97159 30.7759 4.39453 30.7759L13.2422 30.7759L13.2422 20.188L9.72656 20.188L9.72656 14.9234H13.2422V11.3551C13.2422 8.45194 15.6077 6.09037 18.5156 6.09037L23.8477 6.09037V11.3551H18.5156L18.5156 14.9234H23.8477L22.9687 20.188H18.5156V30.7759H25.6055C28.0284 30.7759 30 28.8076 30 26.3887L30 5.21292C30 2.794 28.0284 0.825684 25.6055 0.825684Z" fill="black"/>
</svg>
