<svg width="30" height="31" viewBox="0 0 30 31" fill="none" xmlns="http://www.w3.org/2000/svg">
<path d="M-9.01547e-07 10.1846L-4.09794e-07 21.4159C-1.83506e-07 26.5842 4.19812 30.7754 9.375 30.7754L20.625 30.7754C25.8019 30.7754 30 26.5842 30 21.4159L30 10.1846C30 5.01632 25.8019 0.825162 20.625 0.825162L9.375 0.825162C4.19812 0.825163 -1.12784e-06 5.01632 -9.01547e-07 10.1846ZM20.625 3.633C24.2437 3.633 27.1875 6.57186 27.1875 10.1846L27.1875 21.4159C27.1875 25.0287 24.2437 27.9676 20.625 27.9676L9.375 27.9676C5.75625 27.9676 2.8125 25.0287 2.8125 21.4159L2.8125 10.1846C2.8125 6.57186 5.75625 3.633 9.375 3.633L20.625 3.633Z" fill="black"/>
<path d="M7.5 15.8005C7.5 19.9355 10.8581 23.2881 15 23.2881C19.1419 23.2881 22.5 19.9355 22.5 15.8005C22.5 11.6655 19.1419 8.31297 15 8.31297C10.8581 8.31297 7.5 11.6655 7.5 15.8005ZM19.6875 15.8005C19.6875 18.38 17.5837 20.4803 15 20.4803C12.4144 20.4803 10.3125 18.38 10.3125 15.8005C10.3125 13.2211 12.4144 11.1208 15 11.1208C17.5837 11.1208 19.6875 13.2211 19.6875 15.8005Z" fill="black"/>
<path d="M7.93685 7.75113C7.93685 7.20001 7.48942 6.75324 6.93748 6.75324C6.38554 6.75324 5.93811 7.20001 5.93811 7.75113C5.93811 8.30225 6.38554 8.74902 6.93748 8.74902C7.48942 8.74902 7.93685 8.30225 7.93685 7.75113Z" fill="black"/>
</svg>
