<svg width="30" height="31" viewBox="0 0 30 31" fill="none" xmlns="http://www.w3.org/2000/svg">
<path d="M15 30.7759C23.2863 30.7759 30 24.0733 30 15.8008C30 7.5283 23.2863 0.825684 15 0.825684C6.71375 0.825684 0 7.5283 0 15.8008C0 24.0733 6.71375 30.7759 15 30.7759ZM6.86375 15.4763L21.3263 9.90934C21.9975 9.66724 22.5837 10.0728 22.3662 11.0861L22.3675 11.0849L19.905 22.6669C19.7225 23.488 19.2337 23.6877 18.55 23.3008L14.8 20.5417L12.9912 22.2813C12.7912 22.4809 12.6225 22.6494 12.235 22.6494L12.5013 18.8395L19.4513 12.5712C19.7537 12.3054 19.3837 12.1556 18.985 12.4202L10.3963 17.8187L6.69375 16.6656C5.89 16.411 5.8725 15.8632 6.86375 15.4763Z" fill="black"/>
</svg>
