<svg width="46" height="66" viewBox="0 0 46 66" fill="none" xmlns="http://www.w3.org/2000/svg">
<path d="M22.9719 65.6169L4.18634 60.3656L0 13.0851H46.0001L41.8093 60.3585L22.9719 65.6169Z" fill="#4353AD"/>
<path d="M38.2216 57.3477L41.8025 16.9506H22.9999V61.5969L38.2216 57.3477Z" fill="#485FB5"/>
<path d="M23 49.5472L22.9747 49.5537L16.5613 47.8099L16.1513 43.1852H10.3704L11.1771 52.2901L22.9735 55.5876L23 55.5803V49.5472ZM8.55991 22.7503L9.08337 28.5489H23V22.7503H8.55991ZM9.59704 34.4869L10.1131 40.2857H23V34.4869H9.59704Z" fill="#EDEDED"/>
<path d="M27.5654 0.236077H34.5403V2.78994H30.4824V3.30095H34.5403V9.1748H27.5654V6.49299H31.6236V5.98237H27.5656V0.236077H27.5654ZM19.1956 0.236077H26.1703V2.78994H22.1124V3.30095H26.1703V9.1748H19.1958V6.49299H23.2538V5.98237H19.1955V0.236077H19.1956ZM10.8259 0.236077H17.8005V3.173H13.7427V6.11033H17.8009V9.04725H10.8259V0.236077Z" fill="#100F0D"/>
<path d="M36.3662 34.4871L37.4057 22.7505H22.9802V28.5491H31.0947L30.5708 34.4871H22.9802V40.2859H30.0715L29.4026 47.8067L22.98 49.5521V55.585L34.7856 52.2903L34.872 51.3108L36.2257 36.0442L36.3662 34.4871Z" fill="white"/>
</svg>
