<svg width="46" height="66" viewBox="0 0 46 66" fill="none" xmlns="http://www.w3.org/2000/svg">
<path d="M4.16571 60.5734L0 13.2927H45.7746L41.6044 60.5659L22.8592 65.8247L4.16571 60.5734Z" fill="#E53D20"/>
<path d="M22.8873 61.8047L38.0343 57.5553L41.598 17.1581H22.8873V61.8047Z" fill="#F15123"/>
<path d="M22.8873 34.6946H15.3044L14.7806 28.7564H22.8873V22.9576H22.8675H8.51785L8.65507 24.5133L10.0635 40.4932H22.8873V34.6946Z" fill="#EDEDED"/>
<path d="M22.8873 49.7544L22.8622 49.7612L16.4802 48.0173L16.072 43.3925H12.9709H10.3195L11.1224 52.4975L22.8609 55.7949L22.8873 55.7875V49.7544Z" fill="#EDEDED"/>
<path d="M4.25882 0.44404H7.17105V3.35552H9.83493V0.44404H12.7473V9.26074H9.83505V6.30845H7.17118V9.26074H4.25903V0.44404H4.25882Z" fill="#100F0D"/>
<path d="M16.5769 3.36781H14.0131V0.44404H22.0541V3.36781H19.4892V9.26074H16.5771V3.36781H16.5769Z" fill="#100F0D"/>
<path d="M23.3303 0.44404H26.3669L28.2348 3.54194L30.1008 0.44404H33.1386V9.26074H30.2384V4.89069L28.2348 8.02555H28.1848L26.1798 4.89069V9.26074H23.3303V0.44404Z" fill="#100F0D"/>
<path d="M34.588 0.44404H37.501V6.34648H41.5963V9.26074H34.588V0.44404Z" fill="#100F0D"/>
<path d="M22.8675 34.6945V40.4931H29.9239L29.2588 48.0137L22.8675 49.7594V55.7922L34.6153 52.4976L34.7014 51.5179L36.0481 36.2516L36.1879 34.6945H34.6437H22.8675Z" fill="white"/>
<path d="M22.8675 22.9575V28.7563H36.691H36.7093L36.8243 27.4529L37.0854 24.5132L37.2224 22.9575H22.8675Z" fill="white"/>
</svg>
