<svg width="65" height="66" viewBox="0 0 65 66" fill="none" xmlns="http://www.w3.org/2000/svg">
<path d="M0 0.236328H65V65.6172H0V0.236328Z" fill="#F7DF1E"/>
<path d="M17.0909 54.8733L22.0652 51.8454C23.0248 53.5568 23.8978 55.0048 25.9917 55.0048C27.9989 55.0048 29.2643 54.2151 29.2643 51.1432V30.2524H35.3726V51.2301C35.3726 57.5938 31.6641 60.4904 26.2536 60.4904C21.3671 60.4904 18.5306 57.9448 17.0908 54.8728" fill="black"/>
<path d="M38.6904 54.2149L43.6641 51.3183C44.9734 53.4691 46.675 55.0489 49.6854 55.0489C52.2164 55.0489 53.8304 53.776 53.8304 52.0205C53.8304 49.9139 52.1725 49.1677 49.3799 47.9393L47.8533 47.2805C43.4462 45.3937 40.5227 43.0238 40.5227 38.0205C40.5227 33.4123 44.0132 29.9011 49.4674 29.9011C53.3507 29.9011 56.1431 31.2618 58.15 34.8167L53.3941 37.8887C52.3468 36.0017 51.2127 35.2557 49.4675 35.2557C47.6786 35.2557 46.5441 36.3968 46.5441 37.8887C46.5441 39.732 47.6786 40.4783 50.2962 41.6195L51.8232 42.2777C57.0155 44.5161 59.9389 46.798 59.9389 51.9327C59.9389 57.4629 55.6194 60.4909 49.8165 60.4909C44.1443 60.4909 40.4792 57.77 38.6905 54.2149" fill="black"/>
</svg>
