<svg width="160" height="46" viewBox="0 0 160 46" fill="none" xmlns="http://www.w3.org/2000/svg">
<path fill-rule="evenodd" clip-rule="evenodd" d="M148.973 19.2394C148.829 19.2681 148.685 19.5834 148.685 19.7553C148.656 20.9017 148.627 23.94 148.627 26.0036C148.627 26.061 148.713 26.1755 148.8 26.1755C149.232 26.2042 150.271 26.2329 151.165 26.2329C152.405 26.2329 153.126 26.061 153.529 25.8891C154.567 25.3731 155.058 24.2551 155.058 23.0226C155.058 20.2426 153.097 19.182 150.184 19.182C149.982 19.1536 149.406 19.1535 148.973 19.2394ZM156.413 32.0512C156.413 29.2138 154.308 27.6372 150.501 27.6372C150.328 27.6372 149.117 27.6085 148.829 27.6659C148.742 27.6946 148.627 27.752 148.627 27.8381C148.627 29.8729 148.598 33.1118 148.685 34.3727C148.742 34.9174 149.146 35.6913 149.636 35.9206C150.155 36.2073 151.338 36.2644 152.145 36.2644C154.423 36.2644 156.413 35.0035 156.413 32.0512ZM143.09 17.6631C143.378 17.6631 144.243 17.7489 146.464 17.7489C148.569 17.7489 150.242 17.6918 152.289 17.6918C154.798 17.6918 158.259 18.5802 158.259 22.3061C158.259 24.1406 156.961 25.6024 155.259 26.3189C155.173 26.3476 155.173 26.4047 155.259 26.4334C157.682 27.0355 159.816 28.5259 159.816 31.3347C159.816 34.0863 158.086 35.8345 155.577 36.9238C154.048 37.583 152.145 37.8122 150.213 37.8122C148.742 37.8122 144.791 37.6403 142.6 37.6977C142.369 37.6116 142.802 36.5797 143.003 36.4079C143.523 36.3792 143.926 36.3505 144.474 36.1786C145.253 35.978 145.339 35.7487 145.455 34.5736C145.512 33.5704 145.512 30.0161 145.512 27.494C145.512 24.0258 145.541 21.6756 145.512 20.5292C145.484 19.6408 145.166 19.3541 144.532 19.182C144.042 19.0962 143.234 18.9814 142.571 18.8956C142.427 18.7521 142.917 17.7776 143.09 17.6631ZM126.45 35.4907C127.143 36.0351 128.498 36.2644 129.709 36.2644C131.266 36.2644 132.824 35.978 134.323 34.6307C135.852 33.255 136.919 31.1341 136.919 27.752C136.919 24.5131 135.679 21.8762 133.141 20.3287C131.699 19.44 129.853 19.0675 127.719 19.0675C127.085 19.0675 126.479 19.0962 126.104 19.2681C126.018 19.3254 125.816 19.5834 125.816 19.7266C125.758 20.3 125.758 24.7137 125.758 27.2934C125.758 29.959 125.758 33.6849 125.816 34.1148C125.816 34.5449 126.018 35.2041 126.45 35.4907ZM119.904 17.6631C120.452 17.6631 122.557 17.7489 123.567 17.7489C125.383 17.7489 126.681 17.6631 130.113 17.6631C132.997 17.6631 135.419 18.437 137.149 19.8985C139.254 21.7043 140.35 24.198 140.35 27.2361C140.35 31.564 138.36 34.0577 136.371 35.4907C134.381 36.9525 131.785 37.8122 128.094 37.8122C126.133 37.8122 122.759 37.7548 119.962 37.7262H119.933C119.789 37.4684 120.164 36.4652 120.394 36.4365C121.144 36.3505 121.346 36.3218 121.721 36.1786C122.326 35.9493 122.442 35.6339 122.529 34.5736C122.615 32.5959 122.586 30.217 122.586 27.5227C122.586 25.6024 122.615 21.8475 122.557 20.6437C122.471 19.6408 122.038 19.3828 121.173 19.2107C120.74 19.1249 120.164 19.0101 119.356 18.9243C119.241 18.7234 119.76 17.835 119.904 17.6631Z" fill="#8E714E"/>
<path fill-rule="evenodd" clip-rule="evenodd" d="M85.0103 36.6082C84.2894 36.5221 83.7703 36.4076 83.1357 36.1209C83.0493 36.0635 82.905 35.7771 82.905 35.6624C82.8472 34.6592 82.8472 31.793 82.8472 29.8727C82.8472 28.3248 82.5879 26.9778 81.9245 26.032C81.1458 24.9427 80.0212 24.3123 78.5793 24.3123C77.3104 24.3123 75.6089 25.1723 74.1959 26.3761C74.167 26.4045 73.9363 26.6053 73.9652 26.29C73.9652 25.9746 74.0229 25.3442 74.0518 24.9143C74.0807 24.5128 73.85 24.3123 73.85 24.3123C72.927 24.7708 70.3316 25.3729 69.38 25.4587C68.6879 25.6021 68.515 26.2613 69.2359 26.4906H69.2648C70.0432 26.7198 70.5623 26.9778 70.966 27.2358C71.2544 27.4651 71.2255 27.7804 71.2255 28.0384C71.2544 30.188 71.2544 33.4841 71.168 35.2899C71.1392 36.0064 70.9373 36.2641 70.4182 36.3789L70.4757 36.3502C70.0721 36.4363 69.7548 36.5221 69.2645 36.5795C69.0915 36.7514 69.0915 37.6688 69.2645 37.8694C69.5818 37.8694 71.2544 37.7833 72.6388 37.7833C74.5421 37.7833 75.5226 37.8694 76.0128 37.8694C76.2146 37.6401 76.2724 36.7801 76.1569 36.5795C75.6089 36.5508 75.2053 36.4937 74.8305 36.3789C74.3114 36.2641 74.167 36.0064 74.1382 35.4044C74.0807 33.8852 74.0807 30.6753 74.0807 28.497C74.0807 27.8949 74.2536 27.6083 74.4266 27.4364C75.0898 26.8633 76.1569 26.4619 77.1085 26.4619C78.0313 26.4619 78.637 26.7485 79.0984 27.1213C79.7328 27.637 79.9346 28.3822 80.0212 28.9269C80.1653 30.1593 80.1078 32.5956 80.1078 34.7165C80.1078 35.863 80.0212 36.1496 79.5887 36.2928C79.3869 36.3789 78.8677 36.4937 78.262 36.5508C78.0602 36.7514 78.1179 37.6401 78.262 37.8407C79.0984 37.8407 80.0789 37.7546 81.5208 37.7546C83.3086 37.7546 84.4623 37.8407 84.9237 37.8407C85.0678 37.6688 85.1255 36.8375 85.0101 36.6082H85.0103ZM92.9985 25.6595C91.47 25.6595 90.5183 26.8346 90.5183 28.6689C90.5183 30.5318 91.3545 32.6814 93.7194 32.6814C94.123 32.6814 94.8729 32.5095 95.2188 32.1084C95.7668 31.5924 96.1418 30.5605 96.1418 29.4715C96.1418 27.0926 94.9592 25.6595 92.9985 25.6595ZM92.7964 38.3279C92.2198 38.3279 91.8159 38.4998 91.5566 38.6433C90.3451 39.417 89.7974 40.1622 89.7974 41.0509C89.7974 41.8819 90.1144 42.5411 90.8068 43.1144C91.6429 43.831 92.7964 44.175 94.2671 44.175C97.2086 44.175 98.5064 42.5985 98.5064 41.0509C98.5064 39.9616 97.9585 39.2451 96.8339 38.8439C96.0263 38.4998 94.5556 38.3279 92.7964 38.3279ZM92.9985 45.78C91.2393 45.78 89.9703 45.4072 88.8746 44.5762C87.8075 43.7736 87.3461 42.5698 87.3461 41.7387C87.3461 41.5095 87.4039 40.8787 87.923 40.3057C88.24 39.9616 88.9321 39.3025 90.5761 38.1847C90.6335 38.156 90.6624 38.1273 90.6624 38.07C90.6624 38.0126 90.6047 37.9552 90.5472 37.9268C89.1917 37.4108 88.788 36.5795 88.6725 36.1209V36.0635C88.6439 35.8917 88.5862 35.7198 88.8457 35.5476C89.0476 35.4044 89.336 35.2325 89.653 35.0319C90.1433 34.7452 90.6624 34.4299 90.9797 34.1719C91.0375 34.1145 91.0374 34.0574 91.0374 34C91.0374 33.9426 90.9797 33.8852 90.922 33.8568C88.9035 33.1974 87.8941 31.7069 87.8941 29.4715C87.8941 28.0097 88.5573 26.6912 89.7396 25.8601C90.5472 25.2294 92.5657 24.4557 93.8924 24.4557H93.979C95.3342 24.4841 96.0841 24.7708 97.1509 25.1436C97.7278 25.3442 98.2758 25.43 99.0256 25.43C100.15 25.43 100.64 25.0862 101.044 24.685C101.073 24.7421 101.131 24.8856 101.16 25.2581C101.188 25.6308 101.073 26.1752 100.784 26.5766C100.554 26.8917 100.035 27.1213 99.5158 27.1213H99.3715C98.8524 27.0639 98.6217 27.0065 98.6217 27.0065L98.5064 27.0639C98.4776 27.1213 98.5064 27.1784 98.5353 27.2645L98.5642 27.3219C98.6217 27.5799 98.7371 28.3535 98.7371 28.5544C98.7371 30.9046 97.7855 31.9362 96.7761 32.7101C95.7956 33.4267 94.671 33.8852 93.4021 34C93.3732 34 93.258 34 92.9985 34.0287C92.8541 34.0287 92.6523 34.0574 92.6234 34.0574H92.5946C92.3639 34.1145 91.7873 34.4012 91.7873 34.8884C91.7873 35.3183 92.0468 35.8343 93.2866 35.9203C93.5462 35.949 93.8057 35.949 94.0942 35.9777C95.7379 36.0922 97.7855 36.2357 98.7371 36.5508C100.064 37.0381 100.9 38.2132 100.9 39.6178C100.9 41.7387 99.3715 43.7165 96.8339 44.9487C95.5938 45.4933 94.3537 45.78 92.9985 45.78ZM109.436 25.8027C108.83 25.8027 108.282 25.9459 107.879 26.2326C106.754 26.9204 106.177 28.2964 106.177 30.3025C106.177 34.0574 108.081 36.6943 110.791 36.6943C111.599 36.6943 112.233 36.465 112.781 36.0064C113.617 35.3183 114.05 33.9426 114.05 32.0223C114.05 28.2964 112.176 25.8027 109.436 25.8027ZM109.955 38.07C105.053 38.07 103.294 34.4873 103.294 31.1339C103.294 28.7837 104.245 26.9778 106.148 25.6879C107.504 24.8569 109.119 24.3983 110.561 24.3983C114.309 24.3983 116.934 27.0639 116.934 30.9046C116.934 33.5128 115.896 35.5763 113.906 36.8375C112.954 37.4679 111.311 38.07 109.955 38.07H109.955ZM58.5658 25.8027C57.9601 25.8027 57.4124 25.9459 57.0084 26.2326C55.8839 26.9204 55.307 28.2964 55.307 30.3025C55.307 34.0574 57.2103 36.6943 59.9211 36.6943C60.7286 36.6943 61.363 36.465 61.911 36.0064C62.7471 35.3183 63.1799 33.9426 63.1799 32.0223C63.1799 28.2964 61.3341 25.8027 58.5658 25.8027ZM59.0849 38.07C54.1824 38.07 52.4232 34.4873 52.4232 31.1339C52.4232 28.7837 53.3749 26.9778 55.2781 25.6879C56.6337 24.8569 58.2485 24.3983 59.6904 24.3983C63.4395 24.3983 66.0637 27.0639 66.0637 30.9046C66.0637 33.5128 65.0254 35.5763 63.0356 36.8375C62.1128 37.4679 60.4691 38.07 59.0849 38.07ZM26.1231 37.7833C26.0653 37.6975 26.0076 37.4395 26.0364 37.1241C26.0364 36.8949 26.0942 36.7514 26.1231 36.6943C26.7285 36.6082 27.0458 36.5221 27.3917 36.4363C27.9686 36.2928 28.1993 35.9777 28.2281 35.2612C28.3148 33.5414 28.3148 30.2738 28.2859 28.0097V27.9523C28.2859 27.6944 28.2859 27.379 27.9686 27.1497C27.5072 26.8633 26.9592 26.6053 26.2383 26.4045C25.9787 26.3187 25.8058 26.1752 25.8346 26.0033C25.8346 25.8314 26.0076 25.6308 26.3826 25.5734C27.3343 25.4874 29.8141 24.8856 30.7946 24.4557C30.8524 24.5128 30.939 24.685 30.939 24.9143L30.9101 25.2294C30.8812 25.5447 30.8524 25.9175 30.8524 26.29C30.8524 26.4045 30.9678 26.4906 31.0831 26.4906C31.1408 26.4906 31.1985 26.4619 31.2563 26.4332C33.1018 25.0001 34.7744 24.4842 35.6394 24.4842C37.0527 24.4842 38.1484 25.1436 38.9848 26.5193C39.0423 26.6053 39.1 26.6338 39.1867 26.6338C39.2444 26.6338 39.3307 26.6053 39.3596 26.548C41.0611 25.2581 42.7625 24.4842 43.8871 24.4842C46.5691 24.4842 48.1553 26.4619 48.1553 29.8153C48.1553 30.7611 48.1553 31.9936 48.1264 33.1116C48.1264 34.1145 48.0976 35.0319 48.0976 35.6911C48.0976 35.8343 48.2994 36.2928 48.6167 36.3789C49.0203 36.5795 49.5683 36.6656 50.2893 36.7801H50.3181C50.3759 36.9807 50.2604 37.7259 50.1452 37.8694C49.972 37.8694 49.7124 37.8694 49.4242 37.8407C48.8762 37.812 48.0976 37.7833 47.2325 37.7833C45.4445 37.7833 44.5217 37.812 43.6275 37.8694C43.5701 37.6401 43.5412 36.9522 43.6275 36.7801C44.1467 36.6943 44.4062 36.6082 44.7235 36.5221C45.3004 36.3502 45.4445 36.0922 45.4733 35.347C45.4733 34.8026 45.5885 30.1593 45.4156 29.0414C45.2426 27.8949 44.3774 26.548 42.4741 26.548C41.7531 26.548 40.6285 26.8346 39.5326 27.6657C39.4751 27.7231 39.4174 27.8663 39.4174 27.9523V27.981C39.5326 28.5828 39.5326 29.2709 39.5326 30.3312V32.1942C39.5326 33.4841 39.5037 34.6879 39.5326 35.605C39.5326 36.2357 39.9076 36.3789 40.2249 36.4937C40.3979 36.5221 40.5131 36.5508 40.6574 36.5795C40.917 36.6369 41.1765 36.6943 41.5802 36.7801C41.6379 36.8949 41.6379 37.2673 41.5513 37.5827C41.5224 37.7546 41.4647 37.8407 41.4361 37.8694C40.4556 37.8407 39.4462 37.812 37.9755 37.812C37.543 37.812 36.7931 37.8407 36.1585 37.8407C35.6394 37.8407 35.1492 37.8694 34.861 37.8694C34.8321 37.812 34.7744 37.6114 34.7744 37.296C34.7744 37.0381 34.8321 36.8375 34.8899 36.7801C35.0339 36.7514 35.1492 36.723 35.2935 36.723C35.6394 36.6656 35.9278 36.6082 36.2163 36.5508C36.7065 36.4076 36.8795 36.1496 36.9083 35.5192C36.995 34.0861 37.0813 29.9874 36.8795 28.9555C36.5336 27.2932 35.5819 26.4619 34.0534 26.4619C33.1595 26.4619 32.0347 26.8917 31.1119 27.5799C30.9678 27.6944 30.8524 27.981 30.8524 28.239V29.9301C30.8524 31.9936 30.8524 34.5733 30.8812 35.6911C30.9101 36.0349 31.0253 36.4363 31.6888 36.5795C31.8329 36.6082 32.0636 36.6656 32.352 36.6943L32.8711 36.7801C32.9289 36.9522 32.9 37.6401 32.7845 37.8694C32.4961 37.8694 32.1502 37.8407 31.7463 37.8407C31.1408 37.812 30.3621 37.7833 29.4971 37.7833C28.4877 37.7833 27.7668 37.812 27.1899 37.8407C26.7863 37.7833 26.469 37.7833 26.1231 37.7833Z" fill="#442D22"/>
<path fill-rule="evenodd" clip-rule="evenodd" d="M10.9541 44.6627L9.77175 44.2613C9.77175 44.2613 9.9161 38.271 7.75327 37.8411C6.31138 36.1787 7.98396 -32.6669 13.1746 37.6118C13.1746 37.6118 11.3869 38.5003 11.0696 40.0194C10.7234 41.5099 10.9541 44.6627 10.9541 44.6627Z" fill="white"/>
<path fill-rule="evenodd" clip-rule="evenodd" d="M10.9541 44.6627L9.77175 44.2613C9.77175 44.2613 9.9161 38.271 7.75327 37.8411C6.31138 36.1787 7.98396 -32.6669 13.1746 37.6118C13.1746 37.6118 11.3869 38.5003 11.0696 40.0194C10.7234 41.5099 10.9541 44.6627 10.9541 44.6627Z" fill="#A6A385"/>
<path fill-rule="evenodd" clip-rule="evenodd" d="M11.5887 38.873C11.5887 38.873 21.9414 32.1088 19.519 18.0357C17.1833 7.80357 11.675 4.45016 11.0695 3.16028C10.4063 2.24315 9.77173 0.638184 9.77173 0.638184L10.2045 29.0991C10.2045 29.1278 9.31035 37.8124 11.5887 38.873Z" fill="white"/>
<path fill-rule="evenodd" clip-rule="evenodd" d="M11.5887 38.873C11.5887 38.873 21.9414 32.1088 19.519 18.0357C17.1833 7.80357 11.675 4.45016 11.0695 3.16028C10.4063 2.24315 9.77173 0.638184 9.77173 0.638184L10.2045 29.0991C10.2045 29.1278 9.31035 37.8124 11.5887 38.873Z" fill="#499D4A"/>
<path fill-rule="evenodd" clip-rule="evenodd" d="M9.16628 39.245C9.16628 39.245 -0.552162 32.6527 0.0247011 21.0449C0.572424 9.43677 7.43596 3.73316 8.76237 2.70126C9.62767 1.78413 9.65654 1.44008 9.71428 0.522949C10.3197 1.81283 10.2045 19.8124 10.2909 21.9333C10.5504 30.1019 9.82949 37.6974 9.16628 39.245Z" fill="white"/>
<path fill-rule="evenodd" clip-rule="evenodd" d="M9.16628 39.245C9.16628 39.245 -0.552162 32.6527 0.0247011 21.0449C0.572424 9.43677 7.43596 3.73316 8.76237 2.70126C9.62767 1.78413 9.65654 1.44008 9.71428 0.522949C10.3197 1.81283 10.2045 19.8124 10.2909 21.9333C10.5504 30.1019 9.82949 37.6974 9.16628 39.245Z" fill="#58AA50"/>
</svg>
