<svg width="104" height="66" viewBox="0 0 104 66" fill="none" xmlns="http://www.w3.org/2000/svg">
<path d="M51.3662 65.5987C51.014 65.5987 50.6853 65.5024 50.3801 65.3339L47.2578 63.4328C46.7883 63.1681 47.023 63.0718 47.1639 63.0237C47.7978 62.8071 47.9151 62.759 48.5725 62.3739C48.6429 62.3258 48.7368 62.3499 48.8072 62.398L51.2018 63.866C51.2957 63.9141 51.4131 63.9141 51.4835 63.866L60.8506 58.3069C60.9445 58.2588 60.9914 58.1625 60.9914 58.0422V46.9482C60.9914 46.8279 60.9445 46.7316 60.8506 46.6835L51.4835 41.1485C51.3896 41.1004 51.2722 41.1004 51.2018 41.1485L41.8348 46.6835C41.7409 46.7316 41.6939 46.852 41.6939 46.9482V58.0422C41.6939 58.1385 41.7409 58.2588 41.8348 58.3069L44.3937 59.823C45.7788 60.545 46.6474 59.7027 46.6474 58.8604V47.9108C46.6474 47.7664 46.7648 47.622 46.9291 47.622H48.1264C48.2673 47.622 48.4081 47.7424 48.4081 47.9108V58.8604C48.4081 60.7616 47.3987 61.8686 45.6379 61.8686C45.098 61.8686 44.6754 61.8686 43.4781 61.2669L41.0131 59.823C40.4027 59.4621 40.0271 58.7882 40.0271 58.0663V46.9723C40.0271 46.2503 40.4027 45.5765 41.0131 45.2155L50.3801 39.6565C50.9671 39.3196 51.7652 39.3196 52.3522 39.6565L61.7192 45.2155C62.3296 45.5765 62.7052 46.2503 62.7052 46.9723V58.0663C62.7052 58.7882 62.3296 59.4621 61.7192 59.823L52.3522 65.3821C52.047 65.5265 51.6948 65.5987 51.3662 65.5987ZM54.2537 57.97C50.1454 57.97 49.3002 56.0448 49.3002 54.4084C49.3002 54.264 49.4176 54.1196 49.582 54.1196H50.8027C50.9436 54.1196 51.061 54.2159 51.061 54.3603C51.2488 55.6357 51.7887 56.2614 54.2772 56.2614C56.2492 56.2614 57.0944 55.8042 57.0944 54.7212C57.0944 54.0955 56.8596 53.6383 53.7842 53.3255C51.2253 53.0607 49.6289 52.4832 49.6289 50.3895C49.6289 48.4402 51.2253 47.2851 53.9016 47.2851C56.9066 47.2851 58.3856 48.344 58.5734 50.6542C58.5734 50.7264 58.5499 50.7986 58.5029 50.8708C58.456 50.919 58.3856 50.9671 58.3151 50.9671H57.0944C56.977 50.9671 56.8596 50.8708 56.8361 50.7505C56.5544 49.4269 55.8266 48.9937 53.9016 48.9937C51.7418 48.9937 51.4835 49.7638 51.4835 50.3414C51.4835 51.0393 51.7887 51.2559 54.6998 51.6409C57.5874 52.0259 58.949 52.5794 58.949 54.649C58.9255 56.7668 57.2352 57.97 54.2537 57.97Z" fill="#539E43"/>
<path d="M22.3025 22.2093C22.3025 21.7761 22.0677 21.367 21.6921 21.1504L11.7381 15.2786C11.5738 15.1823 11.386 15.1342 11.1982 15.1101H11.1043C10.9165 15.1101 10.7287 15.1823 10.5643 15.2786L0.610384 21.1504C0.234763 21.367 0 21.7761 0 22.2093L0.0234763 37.996C0.0234763 38.2126 0.140858 38.4292 0.328668 38.5254C0.516479 38.6458 0.751242 38.6458 0.915576 38.5254L6.8316 35.0601C7.20722 34.8435 7.44199 34.4344 7.44199 34.0012V26.6132C7.44199 26.18 7.67675 25.7709 8.05237 25.5544L10.5643 24.0623C10.7521 23.942 10.9634 23.8939 11.1747 23.8939C11.386 23.8939 11.5973 23.942 11.7616 24.0623L14.2736 25.5544C14.6492 25.7709 14.884 26.18 14.884 26.6132V34.0012C14.884 34.4344 15.1187 34.8435 15.4944 35.0601L21.4104 38.5254C21.5982 38.6458 21.833 38.6458 22.0208 38.5254C22.2086 38.4292 22.326 38.2126 22.326 37.996L22.3025 22.2093Z" fill="#333333"/>
<path d="M70.1472 0.478689C69.9594 0.382429 69.7246 0.382429 69.5603 0.478689C69.3725 0.599015 69.2551 0.791535 69.2551 1.00812V16.6504C69.2551 16.7948 69.1847 16.9392 69.0438 17.0355C68.9029 17.1077 68.7621 17.1077 68.6212 17.0355L66.1327 15.5675C65.7571 15.3509 65.3111 15.3509 64.9355 15.5675L54.9815 21.4634C54.6059 21.68 54.3711 22.0891 54.3711 22.5223V34.2901C54.3711 34.7233 54.6059 35.1324 54.9815 35.349L64.9355 41.2449C65.3111 41.4615 65.7571 41.4615 66.1327 41.2449L76.0867 35.349C76.4623 35.1324 76.6971 34.7233 76.6971 34.2901V4.9548C76.6971 4.49756 76.4623 4.08845 76.0867 3.87187L70.1472 0.478689ZM69.2316 30.4157C69.2316 30.536 69.1847 30.6322 69.0908 30.6804L65.6867 32.7018C65.5928 32.75 65.4754 32.75 65.3815 32.7018L61.9774 30.6804C61.8835 30.6322 61.8366 30.5119 61.8366 30.4157V26.3727C61.8366 26.2524 61.8835 26.1561 61.9774 26.108L65.3815 24.0865C65.4754 24.0384 65.5928 24.0384 65.6867 24.0865L69.0908 26.108C69.1847 26.1561 69.2316 26.2765 69.2316 26.3727V30.4157Z" fill="#333333"/>
<path d="M103.272 26.2765C103.648 26.0599 103.859 25.6508 103.859 25.2177V22.3539C103.859 21.9208 103.624 21.5116 103.272 21.2951L93.3887 15.4232C93.0131 15.2066 92.5671 15.2066 92.1914 15.4232L82.2375 21.3191C81.8619 21.5357 81.6271 21.9448 81.6271 22.378V34.1458C81.6271 34.579 81.8619 34.9881 82.2375 35.2047L92.121 40.9803C92.4966 41.1969 92.9427 41.1969 93.2948 40.9803L99.2813 37.5631C99.4691 37.4668 99.5865 37.2502 99.5865 37.0336C99.5865 36.817 99.4691 36.6005 99.2813 36.5042L89.2804 30.6083C89.0926 30.4879 88.9752 30.2954 88.9752 30.0788V26.3969C88.9752 26.1803 89.0926 25.9637 89.2804 25.8674L92.4027 24.0385C92.5905 23.9182 92.8253 23.9182 93.0131 24.0385L96.1354 25.8674C96.3233 25.9878 96.4406 26.1803 96.4406 26.3969V29.2847C96.4406 29.5013 96.558 29.7178 96.7458 29.8141C96.9336 29.9344 97.1684 29.9344 97.3562 29.8141L103.272 26.2765Z" fill="#333333"/>
<path d="M92.6375 25.7231C92.7079 25.675 92.8018 25.675 92.8723 25.7231L94.7738 26.8544C94.8443 26.9025 94.8912 26.9747 94.8912 27.071V29.3335C94.8912 29.4298 94.8443 29.502 94.7738 29.5501L92.8723 30.6814C92.8018 30.7295 92.7079 30.7295 92.6375 30.6814L90.7359 29.5501C90.6655 29.502 90.6185 29.4298 90.6185 29.3335V27.071C90.6185 26.9747 90.6655 26.9025 90.7359 26.8544L92.6375 25.7231Z" fill="#539E43"/>
<mask id="mask0" mask-type="alpha" maskUnits="userSpaceOnUse" x="27" y="15" width="23" height="27">
<path d="M38.9472 15.471C38.5715 15.2544 38.1255 15.2544 37.7499 15.471L27.8664 21.3188C27.4907 21.5354 27.2794 21.9445 27.2794 22.3777V34.0974C27.2794 34.5306 27.5142 34.9397 27.8664 35.1563L37.7499 41.0041C38.1255 41.2207 38.5715 41.2207 38.9472 41.0041L48.8307 35.1563C49.2063 34.9397 49.4176 34.5306 49.4176 34.0974V22.3777C49.4176 21.9445 49.1828 21.5354 48.8307 21.3188L38.9472 15.471Z" fill="white"/>
</mask>
<g mask="url(#mask0)">
<path d="M38.9472 15.471C38.5715 15.2544 38.1255 15.2544 37.7499 15.471L27.8664 21.3188C27.4907 21.5354 27.2794 21.9445 27.2794 22.3777V34.0974C27.2794 34.5306 27.5142 34.9397 27.8664 35.1563L37.7499 41.0041C38.1255 41.2207 38.5715 41.2207 38.9472 41.0041L48.8307 35.1563C49.2063 34.9397 49.4176 34.5306 49.4176 34.0974V22.3777C49.4176 21.9445 49.1828 21.5354 48.8307 21.3188L38.9472 15.471Z" fill="url(#paint0_linear)"/>
<path d="M48.8542 21.318L38.9237 15.4702C38.8298 15.422 38.7124 15.3739 38.6185 15.3499L27.4908 34.8907C27.5847 35.011 27.702 35.1073 27.8194 35.1795L37.7499 41.0273C38.0316 41.1957 38.3603 41.2439 38.6655 41.1476L49.1124 21.5586C49.042 21.4624 48.9481 21.3902 48.8542 21.318Z" fill="url(#paint1_linear)"/>
<path fill-rule="evenodd" clip-rule="evenodd" d="M48.8777 35.1565C49.1594 34.988 49.3707 34.6992 49.4646 34.3864L38.5716 15.3268C38.2898 15.2787 37.9846 15.3028 37.7264 15.4712L27.8664 21.295L38.5011 41.1727C38.642 41.1487 38.8063 41.1005 38.9472 41.0283L48.8777 35.1565Z" fill="url(#paint2_linear)"/>
<path fill-rule="evenodd" clip-rule="evenodd" d="M48.8776 35.1562L38.9706 41.004C38.8298 41.0762 38.6889 41.1243 38.5246 41.1484L38.7124 41.5094L49.6993 34.9878V34.8434L49.4176 34.3621C49.3706 34.699 49.1594 34.9878 48.8776 35.1562Z" fill="url(#paint3_linear)"/>
<path fill-rule="evenodd" clip-rule="evenodd" d="M48.8776 35.1562L38.9706 41.004C38.8298 41.0762 38.6889 41.1243 38.5246 41.1484L38.7124 41.5094L49.6993 34.9878V34.8434L49.4176 34.3621C49.3706 34.699 49.1594 34.9878 48.8776 35.1562Z" fill="url(#paint4_linear)"/>
</g>
<defs>
<linearGradient id="paint0_linear" x1="42.3751" y1="19.8303" x2="31.1555" y2="37.0277" gradientUnits="userSpaceOnUse">
<stop stop-color="#41873F"/>
<stop offset="0.3288" stop-color="#418B3D"/>
<stop offset="0.6352" stop-color="#419637"/>
<stop offset="0.9319" stop-color="#3FA92D"/>
<stop offset="1" stop-color="#3FAE2A"/>
</linearGradient>
<linearGradient id="paint1_linear" x1="36.8479" y1="29.6092" x2="64.2813" y2="15.0694" gradientUnits="userSpaceOnUse">
<stop offset="0.1376" stop-color="#41873F"/>
<stop offset="0.4032" stop-color="#54A044"/>
<stop offset="0.7136" stop-color="#66B848"/>
<stop offset="0.9081" stop-color="#6CC04A"/>
</linearGradient>
<linearGradient id="paint2_linear" x1="26.9185" y1="28.2381" x2="49.7884" y2="28.2381" gradientUnits="userSpaceOnUse">
<stop offset="0.0919165" stop-color="#6CC04A"/>
<stop offset="0.2864" stop-color="#66B848"/>
<stop offset="0.5968" stop-color="#54A044"/>
<stop offset="0.8624" stop-color="#41873F"/>
</linearGradient>
<linearGradient id="paint3_linear" x1="26.9185" y1="37.9554" x2="49.7884" y2="37.9554" gradientUnits="userSpaceOnUse">
<stop offset="0.0919165" stop-color="#6CC04A"/>
<stop offset="0.2864" stop-color="#66B848"/>
<stop offset="0.5968" stop-color="#54A044"/>
<stop offset="0.8624" stop-color="#41873F"/>
</linearGradient>
<linearGradient id="paint4_linear" x1="53.1202" y1="19.2762" x2="47.043" y2="50.3418" gradientUnits="userSpaceOnUse">
<stop stop-color="#41873F"/>
<stop offset="0.3288" stop-color="#418B3D"/>
<stop offset="0.6352" stop-color="#419637"/>
<stop offset="0.9319" stop-color="#3FA92D"/>
<stop offset="1" stop-color="#3FAE2A"/>
</linearGradient>
</defs>
</svg>
