<svg width="72" height="66" viewBox="0 0 72 66" fill="none" xmlns="http://www.w3.org/2000/svg">
<path d="M0.212097 33.0293C0.212097 38.4912 5.48904 43.5902 13.8086 46.4643C12.1473 54.9176 13.5108 61.731 18.0654 64.3859C22.747 67.1146 29.7215 65.2258 36.3412 59.3773C42.7938 64.9897 49.3154 67.1984 53.8657 64.536C58.5428 61.7993 59.9654 54.5239 58.2581 45.8066C66.9234 42.911 71.7705 38.5631 71.7705 33.0293C71.7705 27.694 66.4837 23.0782 58.2764 20.2225C60.1144 11.145 58.557 4.49695 53.8139 1.73242C49.2411 -0.932755 42.6438 1.39022 36.0962 7.14951C29.2846 1.03647 22.7524 -0.829912 18.0139 1.94267C13.4455 4.61543 12.1419 11.5526 13.8086 20.1625C5.76996 22.9953 0.212097 27.7153 0.212097 33.0293Z" fill="white"/>
<path d="M56.5381 23.0603C55.8789 22.8309 55.1958 22.6139 54.4924 22.4087C54.608 21.9318 54.7141 21.4611 54.8084 20.9984C56.357 13.4008 55.3445 7.28004 51.887 5.26484C48.5718 3.33253 43.1499 5.34727 37.674 10.1638C37.1475 10.627 36.6194 11.1173 36.0916 11.6313C35.7399 11.2912 35.3888 10.9626 35.0386 10.6484C29.2998 5.49819 23.5474 3.32784 20.0934 5.34888C16.7813 7.28679 15.8004 13.0408 17.1944 20.2412C17.329 20.9367 17.4863 21.6469 17.6643 22.369C16.8501 22.6026 16.0642 22.8516 15.3122 23.1165C8.584 25.4874 4.28708 29.2032 4.28708 33.0574C4.28708 37.038 8.89983 41.0307 15.9078 43.4517C16.4608 43.6427 17.0346 43.8234 17.626 43.9949C17.4341 44.7759 17.2671 45.5412 17.1269 46.2877C15.7978 53.363 16.8358 58.9812 20.1391 60.9068C23.5511 62.8955 29.2774 60.8514 34.8533 55.9251C35.294 55.5357 35.7363 55.1227 36.1794 54.6898C36.7537 55.2488 37.3271 55.7778 37.8974 56.274C43.2984 60.9715 48.6327 62.8684 51.933 60.9374C55.3416 58.943 56.4493 52.9078 55.0112 45.565C54.9013 45.0042 54.7735 44.4313 54.6299 43.8482C55.0321 43.728 55.4269 43.604 55.8118 43.475C63.0972 41.0353 67.8373 37.0912 67.8373 33.0574C67.8373 29.1892 63.4018 25.4484 56.5381 23.0603Z" fill="#53C1DE"/>
<path d="M54.958 40.8683C54.6105 40.9846 54.2539 41.097 53.8906 41.2059C53.0863 38.6325 52.0009 35.896 50.6725 33.0687C51.9401 30.3087 52.9836 27.6072 53.7654 25.0504C54.4155 25.2405 55.0465 25.4411 55.6545 25.6527C61.5353 27.6989 65.1225 30.7242 65.1225 33.0553C65.1225 35.5383 61.2484 38.7617 54.958 40.8683ZM52.3479 46.0958C52.9838 49.3427 53.0747 52.2782 52.6534 54.5731C52.2749 56.6352 51.5138 58.01 50.5726 58.5606C48.5699 59.7323 44.2869 58.2093 39.668 54.1919C39.1385 53.7314 38.6051 53.2396 38.0701 52.7192C39.8607 50.7398 41.6504 48.4387 43.397 45.883C46.4692 45.6075 49.3717 45.157 52.0039 44.542C52.1335 45.0706 52.2487 45.5889 52.3479 46.0958ZM25.9528 58.3581C23.9961 59.0566 22.4376 59.0766 21.4956 58.5276C19.491 57.359 18.6577 52.8482 19.7944 46.7973C19.9246 46.1044 20.0796 45.3925 20.2582 44.6649C22.8615 45.2468 25.7427 45.6654 28.8223 45.9178C30.5807 48.4185 32.4221 50.7172 34.2777 52.7298C33.8722 53.1254 33.4684 53.502 33.0668 53.8569C30.6012 56.0353 28.1303 57.5808 25.9528 58.3581ZM16.7858 40.8531C13.687 39.7826 11.1279 38.3913 9.3738 36.8731C7.79761 35.5088 7.00182 34.1544 7.00182 33.0553C7.00182 30.7164 10.4518 27.7332 16.2058 25.7055C16.904 25.4595 17.6349 25.2276 18.3933 25.0098C19.1885 27.6243 20.2317 30.3579 21.4906 33.1221C20.2154 35.9273 19.1574 38.7044 18.3544 41.3496C17.8137 41.1925 17.2898 41.0271 16.7858 40.8531ZM19.8587 19.7122C18.6643 13.5431 19.4575 8.88935 21.4535 7.72157C23.5796 6.47753 28.2809 8.25126 33.2359 12.6982C33.5527 12.9824 33.8707 13.2799 34.1895 13.5877C32.3431 15.5915 30.5186 17.8729 28.7758 20.3589C25.787 20.6389 22.926 21.0887 20.2955 21.691C20.1301 21.0186 19.9836 20.358 19.8587 19.7122ZM47.2714 26.5536C46.6425 25.4558 45.997 24.384 45.3388 23.3414C47.3665 23.6004 49.3092 23.9444 51.1336 24.3652C50.5858 26.1394 49.9032 27.9944 49.0996 29.8961C48.5231 28.7899 47.9134 27.6746 47.2714 26.5536ZM36.0925 15.5487C37.3447 16.9198 38.5988 18.4507 39.8322 20.1117C38.5893 20.0524 37.3309 20.0215 36.0622 20.0215C34.8055 20.0215 33.5564 20.0517 32.3212 20.11C33.5558 18.4645 34.8207 16.9356 36.0925 15.5487ZM24.8421 26.5726C24.2139 27.6735 23.6155 28.7827 23.0481 29.894C22.2576 27.999 21.5812 26.1355 21.0287 24.3362C22.8419 23.9261 24.7755 23.5907 26.7902 23.3366C26.1228 24.3888 25.4719 25.4685 24.8421 26.5724V26.5726ZM26.8482 42.9697C24.7666 42.735 22.804 42.4169 20.9913 42.0182C21.5526 40.1867 22.2439 38.2834 23.0512 36.3476C23.6201 37.4581 24.2208 38.5678 24.8528 39.6711H24.8529C25.4967 40.795 26.1637 41.8961 26.8482 42.9697ZM36.1676 50.7553C34.8809 49.3522 33.5975 47.8 32.344 46.1304C33.5608 46.1787 34.8014 46.2034 36.0622 46.2034C37.3575 46.2034 38.638 46.1739 39.8984 46.1172C38.6609 47.8168 37.4114 49.3714 36.1676 50.7553ZM49.1255 36.2489C49.9749 38.2057 50.6909 40.099 51.2595 41.8993C49.4169 42.3241 47.4275 42.6663 45.3314 42.9206C45.9911 41.8639 46.6423 40.7737 47.2822 39.6522C47.9296 38.5176 48.5443 37.3812 49.1255 36.2489ZM44.9306 38.2814C43.9372 40.0223 42.9173 41.6842 41.8819 43.2529C39.9961 43.3892 38.0479 43.4594 36.0622 43.4594C34.0846 43.4594 32.1609 43.3973 30.3084 43.2758C29.2313 41.6865 28.1893 40.0197 27.2022 38.2963H27.2024C26.218 36.5777 25.3119 34.8446 24.4909 33.1211C25.3116 31.3937 26.2153 29.6586 27.1942 27.9431L27.1939 27.9434C28.1754 26.2233 29.2082 24.5646 30.2754 22.9852C32.1654 22.8408 34.1035 22.7655 36.0621 22.7655H36.0622C38.0297 22.7655 39.9702 22.8414 41.8597 22.9871C42.9105 24.5549 43.9364 26.2082 44.9217 27.9286C45.9181 29.6682 46.8335 31.3918 47.6613 33.0822C46.836 34.8016 45.9226 36.5425 44.9306 38.2814ZM50.531 7.63993C52.6591 8.88031 53.4867 13.8828 52.1496 20.4425C52.0643 20.8611 51.9683 21.2874 51.864 21.7195C49.2274 21.1046 46.3644 20.647 43.3668 20.3628C41.6206 17.8495 39.8111 15.5646 37.9947 13.5864C38.4831 13.1116 38.9707 12.6588 39.4563 12.2316C44.148 8.1048 48.5331 6.47547 50.531 7.63993Z" fill="white"/>
<path d="M36.0622 27.3196C39.1963 27.3196 41.737 29.8875 41.737 33.0552C41.737 36.2229 39.1963 38.7909 36.0622 38.7909C32.9281 38.7909 30.3874 36.2229 30.3874 33.0552C30.3874 29.8875 32.9281 27.3196 36.0622 27.3196Z" fill="#53C1DE"/>
</svg>
